<svg xmlns="http://www.w3.org/2000/svg" viewBox="0 0 512 512">
  <rect width="512" height="512" rx="100" fill="#4f46e5"/>
  <path fill="white" d="M488 352h-20c-13.3 0-24-10.7-24-24V288c0-13.3 10.7-24 24-24h20c13.3 0 24-10.7 24-24v-48c0-13.3-10.7-24-24-24h-20c-13.3 0-24-10.7-24-24V96c0-17.7-14.3-32-32-32h-48c-13.3 0-24 10.7-24 24v20c0 13.3-10.7 24-24 24h-40c-13.3 0-24-10.7-24-24v-20c0-13.3-10.7-24-24-24h-48c-13.3 0-24 10.7-24 24v20c0 13.3-10.7 24-24 24H96c-17.7 0-32 14.3-32 32v48c0 13.3 10.7 24 24 24h20c13.3 0 24 10.7 24 24v40c0 13.3-10.7 24-24 24H88c-13.3 0-24 10.7-24 24v48c0 13.3 10.7 24 24 24h20c13.3 0 24 10.7 24 24v40c0 13.3-10.7 24-24 24H88c-13.3 0-24 10.7-24 24v48c0 13.3 10.7 24 24 24h48c17.7 0 32-14.3 32-32v-20c0-13.3 10.7-24 24-24h40c13.3 0 24 10.7 24 24v20c0 13.3 10.7 24 24 24h48c13.3 0 24-10.7 24-24v-20c0-13.3 10.7-24 24-24h40c13.3 0 24 10.7 24 24v20c0 13.3 10.7 24 24 24h48c17.7 0 32-14.3 32-32v-48c0-13.3-10.7-24-24-24z"/>
</svg>
